# xmcd CD database generated by RipIT
#
# Track frame offsets:
# 150
# 14568
# 26128
# 45057
# 61574
# 72894
# 85578
# 99660
# 137110
# 150767
# 164477
# 179495
# 193296
# 207182
# 221084
# 235129
#
# Disc length: 3355 seconds
#
# Revision: 2
# Processed by: cddbd v1.5.2PL0 Copyright (c) Steve Scherf et al.
# Submitted via: RipIT 3.6.0 www.suwald.com/ripit/ripit.html on 2009-03-07 at 23:30
#
DISCID=d30d1910
DTITLE=Various Artist - Ultimate Piano Works CD 07
DYEAR=1900
DGENRE=Jazz
TTITLE0=Art Tatum - I'll Never Be The Same
TTITLE1=Erroll Garner - Back Home Again In Indiana
TTITLE2=Art Tatum - I Don't Stand A Ghost Of A Chance With You
TTITLE3=Bud Powell - A Nightingale Song In Berkeley Sqare
TTITLE4=Art Tatum - I Would Do Anything For You
TTITLE5=Dave Brubeck - Always
TTITLE6=Thelonius Monk - Epistrophy
TTITLE7=Erroll Garner - I Hear A Rhapsody (Parts 1 and 2)
TTITLE8=Art Tatum - I've Got My Love To Keep Me Warm
TTITLE9=Joe Sullivan - It's The Talk Of The Town
TTITLE10=Oscar Peterson - Yesterdays
TTITLE11=Willie Smith - Cuttin' Out
TTITLE12=Joe Sullivan - I Got It Bad (And That Ain't Good)
TTITLE13=Jimmy Yancey - K Special
TTITLE14=Erroll Garner - Everything Happens To Me
TTITLE15=Pete Johnson - Vine Street Blues
EXTD=
EXTT0=
EXTT1=
EXTT2=
EXTT3=
EXTT4=
EXTT5=
EXTT6=
EXTT7=
EXTT8=
EXTT9=
EXTT10=
EXTT11=
EXTT12=
EXTT13=
EXTT14=
EXTT15=
PLAYORDER=
